<?xml version="1.0" encoding="UTF-8" standalone="no"?>
<svg
   version="1.0"
   width="1000"
   height="1000"
   viewBox="0 0 750 750"
   preserveAspectRatio="xMidYMid"
   id="svg26"
   sodipodi:docname="logo.svg"
   inkscape:version="1.4 (86a8ad7, 2024-10-11)"
   xmlns:inkscape="http://www.inkscape.org/namespaces/inkscape"
   xmlns:sodipodi="http://sodipodi.sourceforge.net/DTD/sodipodi-0.dtd"
   xmlns:xlink="http://www.w3.org/1999/xlink"
   xmlns="http://www.w3.org/2000/svg"
   xmlns:svg="http://www.w3.org/2000/svg">
  <defs
     id="defs26">
    <linearGradient
       id="linearGradient46"
       inkscape:collect="always">
      <stop
         style="stop-color:#000000;stop-opacity:1;"
         offset="0"
         id="stop47" />
      <stop
         style="stop-color:#000431;stop-opacity:0.74408603;"
         offset="1"
         id="stop48" />
    </linearGradient>
    <linearGradient
       id="linearGradient38"
       inkscape:collect="always">
      <stop
         style="stop-color:#000747;stop-opacity:0.99569893;"
         offset="0"
         id="stop39" />
      <stop
         style="stop-color:#000000;stop-opacity:0.47956988;"
         offset="1"
         id="stop40" />
    </linearGradient>
    <linearGradient
       id="linearGradient36"
       inkscape:collect="always">
      <stop
         style="stop-color:#000543;stop-opacity:1;"
         offset="0"
         id="stop37" />
      <stop
         style="stop-color:#000000;stop-opacity:0.75053763;"
         offset="1"
         id="stop38" />
    </linearGradient>
    <linearGradient
       id="linearGradient34"
       inkscape:collect="always">
      <stop
         style="stop-color:#00015c;stop-opacity:1;"
         offset="0"
         id="stop35" />
      <stop
         style="stop-color:#000000;stop-opacity:0.7096774;"
         offset="1"
         id="stop36" />
    </linearGradient>
    <linearGradient
       id="linearGradient32"
       inkscape:collect="always">
      <stop
         style="stop-color:#000a57;stop-opacity:1;"
         offset="0"
         id="stop33" />
      <stop
         style="stop-color:#000000;stop-opacity:1;"
         offset="1"
         id="stop34" />
    </linearGradient>
    <linearGradient
       id="linearGradient30"
       inkscape:collect="always">
      <stop
         style="stop-color:#00066a;stop-opacity:0.89462364;"
         offset="0"
         id="stop31" />
      <stop
         style="stop-color:#000000;stop-opacity:0.89032257;"
         offset="1"
         id="stop32" />
    </linearGradient>
    <linearGradient
       id="swatch26">
      <stop
         style="stop-color:#550000;stop-opacity:1;"
         offset="0"
         id="stop26" />
    </linearGradient>
    <radialGradient
       inkscape:collect="always"
       xlink:href="#linearGradient30"
       id="radialGradient32"
       cx="741.81207"
       cy="375.90393"
       fx="741.81207"
       fy="375.90393"
       r="75.124222"
       gradientTransform="matrix(-0.80087826,-0.6458763,0.78710848,-0.97600434,864.05656,1070.8035)"
       gradientUnits="userSpaceOnUse" />
    <radialGradient
       inkscape:collect="always"
       xlink:href="#linearGradient32"
       id="radialGradient34"
       cx="805.92249"
       cy="640.67108"
       fx="805.92249"
       fy="640.67108"
       r="63.922516"
       gradientTransform="matrix(1.9485901,0.72698207,-1.6914075,4.5336192,183.21473,-3015.0283)"
       gradientUnits="userSpaceOnUse" />
    <radialGradient
       inkscape:collect="always"
       xlink:href="#linearGradient34"
       id="radialGradient36"
       cx="726.5"
       cy="261.59528"
       fx="726.5"
       fy="261.59528"
       r="21.5"
       gradientTransform="matrix(2.0818386,0.02309762,-0.03471195,3.1286627,-912.80635,-738.87806)"
       gradientUnits="userSpaceOnUse" />
    <radialGradient
       inkscape:collect="always"
       xlink:href="#linearGradient38"
       id="radialGradient40"
       cx="663.86566"
       cy="704.1524"
       fx="663.86566"
       fy="704.1524"
       r="108.5"
       gradientTransform="matrix(-1.2503659,1.8830219,-1.2910245,-0.85726726,2267.0875,-106.51835)"
       gradientUnits="userSpaceOnUse" />
    <linearGradient
       inkscape:collect="always"
       xlink:href="#linearGradient46"
       id="linearGradient48"
       x1="168.16251"
       y1="551.5"
       x2="687"
       y2="551.5"
       gradientUnits="userSpaceOnUse"
       gradientTransform="translate(-135.93107,-165.24955)" />
    <linearGradient
       inkscape:collect="always"
       xlink:href="#linearGradient36"
       id="linearGradient49"
       x1="723.71045"
       y1="531.47485"
       x2="745.38409"
       y2="537.12885"
       gradientUnits="userSpaceOnUse"
       gradientTransform="translate(-135.93107,-165.24955)" />
  </defs>
  <sodipodi:namedview
     id="namedview26"
     pagecolor="#505050"
     bordercolor="#eeeeee"
     borderopacity="1"
     inkscape:showpageshadow="0"
     inkscape:pageopacity="0"
     inkscape:pagecheckerboard="0"
     inkscape:deskcolor="#505050"
     inkscape:document-units="pt"
     inkscape:zoom="0.28139259"
     inkscape:cx="158.14205"
     inkscape:cy="1089.2256"
     inkscape:window-width="1920"
     inkscape:window-height="1017"
     inkscape:window-x="-8"
     inkscape:window-y="-8"
     inkscape:window-maximized="1"
     inkscape:current-layer="svg26" />
  <path
     d="m 582.96893,54.350447 c -5.6,1.7 -11.3,7.5 -12.8,13.1 -0.7,2.3 -1.1,17 -1.1,38.100003 v 34.3 l 2.3,-0.7 c 5.7,-1.8 9.9,-2.4 19.2,-2.4 9.3,0 13.5,0.6 19.3,2.4 l 2.2,0.7 v -35.1 c 0,-38.600003 -0.1,-39.400003 -6.3,-45.800003 -3.2,-3.3 -10.7,-6.3 -15.6,-6.1 -1.4,0 -4.7,0.7 -7.2,1.5 z"
     id="path1"
     style="fill:url(#radialGradient36);stroke:none;stroke-width:0.1" />
  <path
     d="m 41.568915,112.15045 c -4.1,1.8 -8.3,6.9 -9,10.9 -0.3,1.8 -0.4,121.1 -0.3,265.2 0.3,246.5 0.4,262.2 2,265.2 1,1.7 3.2,4.2 5,5.5 l 3.3,2.3 179.100015,0.3 179.1,0.2 1.2,-10.7 c 0.7,-6 2.5,-24.5 4.1,-41.3 l 2.9,-30.5 28.6,-85 c 15.7,-46.8 38.5,-114.8 50.7,-151.2 l 22.2,-66.2 -4.7,-9.8 c -6.5,-13.6 -7.9,-19.5 -8.4,-35.5 -0.7,-19.8 2.4,-33.2 11.5,-49.3 7.8,-13.8 21.7,-27.2 36,-34.5 l 6.2,-3.2 v -16.9 -16.9 h -253.2 c -208.400015,0.1 -253.800015,0.3 -256.300015,1.4 z m 63.900015,40 c 3.2,1.3 7.6,6.2 8.9,9.8 0.6,1.7 8.9,1.8 155.1,1.8 h 154.5 l 1.5,-2.9 c 7,-13.5 25.9,-13.4 32.5,0.2 4.4,9 1.5,19.6 -6.8,24.9 -4,2.6 -5.3,2.9 -10.3,2.6 -6.6,-0.5 -11.9,-3.9 -14.5,-9.4 l -1.7,-3.4 h -154.7 -154.7 l -1.2,2.9 c -1.4,3.6 -4.6,6.6 -8.2,8 l -2.80001,1.1 0.1,200.2 v 200.3 l 4.20001,3 c 2.3,1.7 5.2,4.6 6.5,6.5 1.3,1.9 3.3,3.8 4.5,4.2 1.2,0.3 60.4,0.6 131.5,0.7 l 129.2,0.1 v 5.5 5.5 h -132 c -113.5,0 -132,0.2 -132,1.4 0,2.3 -5.1,7.8 -8.7,9.2 -7.300015,3.1 -17.600015,1 -22.100015,-4.5 -2.6,-3.1 -5.2,-9.7 -5.2,-13 0,-5.5 3.7,-12 8.6,-15 l 4.3,-2.6 0.1,-201.1 v -201.2 l -3,-1.2 c -9.2,-3.8 -12.7,-17.3 -6.9,-26.6 4.5,-7.3 15.1,-10.4 23.300015,-7 z m 120.9,75.9 c 0.3,0.8 7.7,12.6 16.4,26.3 8.8,13.7 21.3,33.3 27.9,43.6 6.5,10.3 12.1,18.8 12.4,18.8 0.3,0 3.9,-5.2 8,-11.5 22.1,-34 34.4,-52.9 42,-65 l 8.5,-13.4 32.3,-0.1 c 30.5,0 32.2,0.1 31.3,1.7 -1.3,2.2 -20.3,31.6 -56.1,86.4 -15.1,23.2 -28.3,43.6 -29.4,45.3 l -1.9,3.1 29.5,44.5 c 48.2,72.7 64.8,98.1 64.8,98.5 0,0.3 -15.4,0.5 -34.2,0.5 h -34.3 l -7.6,-12.3 c -4.2,-6.7 -12.9,-20.5 -19.4,-30.7 -6.5,-10.2 -14.1,-22.3 -17,-27 -9.3,-15.2 -17.7,-28 -18.3,-28 -0.4,0.1 -5.9,8 -12.2,17.8 -24.8,38.3 -52.3,79.4 -53.4,79.8 -0.6,0.2 -15.2,0.3 -32.3,0.2 l -31.2,-0.3 11.7,-17.5 c 19,-28.4 71.8,-108.5 79.8,-121.1 l 2.4,-3.8 -18.4,-29.3 c -10,-16.1 -21.9,-35 -26.4,-41.9 -4.4,-7 -13.3,-21.1 -19.8,-31.5 -6.4,-10.4 -13.6,-21.8 -15.9,-25.4 -2.3,-3.6 -4.5,-7.1 -4.9,-7.8 -0.6,-0.9 6.1,-1.2 32.2,-1.2 26.6,0 33.1,0.3 33.5,1.3 z"
     id="path2"
     style="fill:url(#linearGradient48);fill-opacity:1;stroke:none;stroke-width:0.1" />
  <path
     d="m 574.56893,153.85045 c -24.7,6 -45.4,24.2 -54.7,47.9 -4.1,10.5 -5.1,17.7 -4.5,30.8 0.8,19.8 6.9,34.2 20.5,48.3 15.3,16.1 32.5,23.3 55.2,23.2 21.4,-0.1 39.4,-8.2 54.7,-24.7 20.3,-21.6 25.5,-54.9 12.8,-82.3 -9.1,-19.7 -23.9,-33.4 -43.8,-40.6 -7.3,-2.7 -9.7,-3 -22.2,-3.3 -7.7,-0.2 -15.8,0.1 -18,0.7 z m 29.4,40.1 c 7.7,2.9 16.9,12.1 20.2,20.3 3.6,8.9 3.4,21.8 -0.4,29.7 -3.8,7.9 -10.7,15.2 -17.4,18.4 -11.1,5.5 -26.6,4.2 -37.2,-3.1 -14.6,-10 -20.3,-31.1 -12.6,-46.8 9.1,-18.6 27.8,-25.8 47.4,-18.5 z"
     id="path3"
     style="fill:url(#radialGradient32);stroke:none;stroke-width:0.1" />
  <path
     d="m 642.66893,295.95045 c -8.8,7.7 -22.3,15 -31,16.8 -3.1,0.6 -5.6,1.4 -5.6,1.8 0,1 34.4,106.5 58.1,178.2 26.4,79.7 36.1,108.2 39.2,115.1 3.9,8.5 16.1,35.6 20.2,44.9 4.3,9.7 4.2,9.6 5.2,8.6 1.3,-1.2 5.1,-77.7 4.1,-81.1 -1.4,-5 -33.8,-123.5 -33.8,-123.9 0,-0.2 5.3,-0.5 11.8,-0.7 12.8,-0.4 16.5,-1.7 20.5,-7.1 3.2,-4.3 3.4,-13.2 0.5,-18.2 -4.1,-7.1 -6.9,-8 -26.2,-8.6 l -17,-0.5 -7.8,-28 c -16.2,-57.7 -28,-99.1 -29.2,-101.6 l -1.1,-2.6 z"
     id="path4"
     style="fill:url(#radialGradient34);stroke:none;stroke-width:0.1" />
  <path
     d="m 558.96893,336.45045 c -10.4,24.5 -16.1,38 -22.4,53.3 -2.4,5.8 -6.4,15.3 -8.8,21.2 l -4.6,10.8 h 53.8 53.7 l -17.5,-52.8 -17.4,-52.7 -9.3,-0.1 c -5.1,-0.1 -11.3,-0.5 -13.7,-0.8 l -4.5,-0.7 z"
     id="path5"
     style="fill:url(#linearGradient49);fill-opacity:1;stroke:none;stroke-width:0.1" />
  <path
     d="m 506.66893,458.65045 c -3.2,6.1 -47.1,108.9 -55.3,129.3 -2.9,7.2 -25.7,46.7 -39.6,68.5 -1.5,2.4 -2.7,4.5 -2.7,4.8 0,0.3 46.2,0.5 102.8,0.5 116.3,0 107.5,0.6 112,-8 l 2.2,-4.4 v -96.8 -96.8 h -59 -58.9 z m 60.4,80.1 c 0,27.5 0.4,46 0.9,46 1.9,0 7.2,5.3 9.1,9.1 3.9,7.6 1.7,17.6 -5,23.2 -9.9,8.4 -27,1.5 -29.6,-11.9 -1.3,-7 4,-16.7 10.6,-19.4 l 3,-1.2 v -45.9 -45.9 h 5.5 5.5 z"
     id="path6"
     style="fill:url(#radialGradient40);stroke:none;stroke-width:0.1" />
</svg>
